<?xml version="1.0" encoding="utf-8"?>
<!-- Generator: Adobe Illustrator 26.0.2, SVG Export Plug-In . SVG Version: 6.00 Build 0)  -->
<svg version="1.1" id="Layer_1" xmlns="http://www.w3.org/2000/svg" xmlns:xlink="http://www.w3.org/1999/xlink" x="0px" y="0px"
	 viewBox="0 0 432 432" style="enable-background:new 0 0 432 432;" xml:space="preserve">
<style type="text/css">
	.st0{clip-path:url(#SVGID_00000080905317515965756130000013777072475893443246_);fill:#191919;}
	.st1{clip-path:url(#SVGID_00000080905317515965756130000013777072475893443246_);}
	.st2{fill:#777777;}
	.st3{clip-path:url(#SVGID_00000080905317515965756130000013777072475893443246_);fill:none;}
</style>
<g>
	<defs>
		<rect id="SVGID_1_" width="432" height="432"/>
	</defs>
	<clipPath id="SVGID_00000150092883618565634800000015968472916487027633_">
		<use xlink:href="#SVGID_1_"  style="overflow:visible;"/>
	</clipPath>
	
		<rect style="clip-path:url(#SVGID_00000150092883618565634800000015968472916487027633_);fill:#191919;" width="432" height="432"/>
	<g style="clip-path:url(#SVGID_00000150092883618565634800000015968472916487027633_);">
		<path class="st2" d="M469.4,245.9c-6.7-21.7-5.7-66.4-40.1-63.9c-31.7,2.3-26.7,49.9-30.5,69c-3.8,19.3-1.4,45.6,3.1,47
			c5.2,1.6,5.5-2.6,15.5-3.3c8.3-0.6,8.5,4.9,20.3,4.1c11.8-0.9,11.3-6.3,19.5-6.9c10-0.7,12.6,4.4,16.8,1
			C476.4,290.8,475.1,264.7,469.4,245.9z"/>
		
			<ellipse transform="matrix(0.9974 -7.207479e-02 7.207479e-02 0.9974 -14.4872 30.9765)" cx="422" cy="216.2" rx="5.3" ry="10.9"/>
		
			<ellipse transform="matrix(0.9974 -7.207479e-02 7.207479e-02 0.9974 -14.3341 32.3857)" cx="441.6" cy="214.8" rx="5.3" ry="10.9"/>
	</g>
	<g style="clip-path:url(#SVGID_00000150092883618565634800000015968472916487027633_);">
		<path class="st2" d="M37.4,245.9c-6.7-21.7-5.7-66.4-40.1-63.9c-31.7,2.3-26.7,49.9-30.5,69c-3.8,19.3-1.4,45.6,3.1,47
			c5.2,1.6,5.5-2.6,15.5-3.3c8.3-0.6,8.5,4.9,20.3,4.1c11.8-0.9,11.3-6.3,19.5-6.9c10-0.7,12.6,4.4,16.8,1
			C44.4,290.8,43.2,264.7,37.4,245.9z"/>
		
			<ellipse transform="matrix(0.9974 -7.207479e-02 7.207479e-02 0.9974 -15.6108 -0.1597)" cx="-10" cy="216.2" rx="5.3" ry="10.9"/>
		<ellipse transform="matrix(0.9974 -7.207479e-02 7.207479e-02 0.9974 -15.4577 1.2496)" cx="9.6" cy="214.8" rx="5.3" ry="10.9"/>
	</g>
	<g style="clip-path:url(#SVGID_00000150092883618565634800000015968472916487027633_);">
		<path class="st2" d="M365.3,453.8c-3-22.5,5.2-66.5-29.2-69.6c-31.7-2.9-34.5,44.9-41.3,63.2c-6.9,18.4-8.8,44.8-4.6,46.8
			c4.9,2.4,5.8-1.7,15.9-0.7c8.2,0.8,7.5,6.2,19.4,7.3c11.8,1.1,12.1-4.4,20.4-3.7c10,0.9,11.7,6.4,16.4,3.7
			C364.9,499.2,367.9,473.3,365.3,453.8z"/>
		
			<ellipse transform="matrix(9.104986e-02 -0.9958 0.9958 9.104986e-02 -121.1542 700.8265)" cx="323.3" cy="416.8" rx="10.9" ry="5.3"/>
		
			<ellipse transform="matrix(9.104986e-02 -0.9958 0.9958 9.104986e-02 -105.1455 721.9447)" cx="342.9" cy="418.6" rx="10.9" ry="5.3"/>
	</g>
	<g style="clip-path:url(#SVGID_00000150092883618565634800000015968472916487027633_);">
		<path class="st2" d="M365.3,21.8c-3-22.5,5.2-66.5-29.2-69.6c-31.7-2.9-34.5,44.9-41.3,63.2c-6.9,18.4-8.8,44.8-4.6,46.8
			c4.9,2.4,5.8-1.7,15.9-0.7c8.2,0.8,7.5,6.2,19.4,7.3c11.8,1.1,12.1-4.4,20.4-3.7c10,0.9,11.7,6.4,16.4,3.7
			C364.9,67.2,367.9,41.3,365.3,21.8z"/>
		
			<ellipse transform="matrix(9.104986e-02 -0.9958 0.9958 9.104986e-02 309.0504 308.161)" cx="323.3" cy="-15.2" rx="10.9" ry="5.3"/>
		
			<ellipse transform="matrix(9.104986e-02 -0.9958 0.9958 9.104986e-02 325.059 329.2792)" cx="342.9" cy="-13.4" rx="10.9" ry="5.3"/>
	</g>
	<g style="clip-path:url(#SVGID_00000150092883618565634800000015968472916487027633_);">
		<path class="st2" d="M229.5,168.9c-35.1-3.2-46.9,48.5-48.6,66.7c-0.4,4.3,7.7-0.4,10.8,2.2c2.5,2.2,3.9,6.6,7.4,7.9
			c10.4,3.9,11.3-2,23.4-1c10.9,0.9,10.9,7,21.5,5.4c4.2-0.6,7.1-4.1,10.3-6c3.5-2.1,10.5,3.4,10.9-1
			C266.8,225.1,264.9,172.1,229.5,168.9z"/>
		
			<ellipse transform="matrix(9.105035e-02 -0.9958 0.9958 9.105035e-02 -0.5276 393.8688)" cx="215.5" cy="197.2" rx="8.2" ry="5.3"/>
		
			<ellipse transform="matrix(9.105035e-02 -0.9958 0.9958 9.105035e-02 17.9693 418.2695)" cx="238.1" cy="199.3" rx="8.2" ry="5.3"/>
	</g>
	<g style="clip-path:url(#SVGID_00000150092883618565634800000015968472916487027633_);">
		<path class="st2" d="M103.8,391.2c-35,3.9-36.2,56.9-34.2,75.1c0.5,4.3,7.5-2,11,0c2.9,1.7,5.1,5.7,8.9,6.3
			c11,1.8,10.7-4.2,22.8-5.6c10.9-1.3,12.1,4.7,22.1,1c4-1.5,6.1-5.4,8.9-7.9c3-2.7,10.9,1.2,10.5-3.1
			C151.7,438.9,139.2,387.3,103.8,391.2z"/>
		<ellipse transform="matrix(0.9939 -0.1101 0.1101 0.9939 -45.8658 13.1151)" cx="95.8" cy="421.8" rx="5.3" ry="8.2"/>
		<ellipse transform="matrix(0.9939 -0.1101 0.1101 0.9939 -45.4532 15.5854)" cx="118.4" cy="419.3" rx="5.3" ry="8.2"/>
	</g>
	<g style="clip-path:url(#SVGID_00000150092883618565634800000015968472916487027633_);">
		<path class="st2" d="M103.8-40.8c-35,3.9-36.2,56.9-34.2,75.1c0.5,4.3,7.5-2,11,0c2.9,1.7,5.1,5.7,8.9,6.3
			c11,1.8,10.7-4.2,22.8-5.6c10.9-1.3,12.1,4.7,22.1,1c4-1.5,6.1-5.4,8.9-7.9c3-2.7,10.9,1.2,10.5-3.1
			C151.7,6.9,139.2-44.7,103.8-40.8z"/>
		<ellipse transform="matrix(0.9939 -0.1101 0.1101 0.9939 1.7039 10.4881)" cx="95.8" cy="-10.2" rx="5.3" ry="8.2"/>
		<ellipse transform="matrix(0.9939 -0.1101 0.1101 0.9939 2.1165 12.9583)" cx="118.4" cy="-12.7" rx="5.3" ry="8.2"/>
	</g>
	<rect style="clip-path:url(#SVGID_00000150092883618565634800000015968472916487027633_);fill:none;" width="432" height="432"/>
</g>
</svg>
